<svg xmlns="http://www.w3.org/2000/svg" xmlns:xlink="http://www.w3.org/1999/xlink" xmlns:serif="http://www.serif.com/" width="199" height="36" viewBox="0 0 199 36" version="1.1" xml:space="preserve" style="fill-rule:evenodd;clip-rule:evenodd;stroke-linejoin:round;stroke-miterlimit:2;"><g id="Claim_und_Logo"><g id="Path"><rect x="0.797" y="13.238" width="5.76" height="5.75" style="fill:#e20074;fill-rule:nonzero;"/><rect x="18.347" y="13.238" width="5.751" height="5.75" style="fill:#e20074;fill-rule:nonzero;"/><rect x="35.608" y="13.238" width="5.751" height="5.75" style="fill:#e20074;fill-rule:nonzero;"/><rect x="52.878" y="13.238" width="5.751" height="5.75" style="fill:#e20074;fill-rule:nonzero;"/><path d="M23.818,0.189l-22.741,0l-0.28,10.007l1.512,0.262c0.279,-2.953 1.06,-5.143 2.325,-6.57c1.339,-1.492 3.18,-2.272 5.546,-2.345l0,20.947c0,1.829 -0.255,3.019 -0.789,3.568c-0.452,0.468 -1.224,0.755 -2.309,0.861c-0.32,0.025 -0.87,0.041 -1.643,0.041l0,1.6l14.033,0l0,-1.6c-0.772,0 -1.323,-0.016 -1.643,-0.041c-1.085,-0.106 -1.849,-0.393 -2.309,-0.861c-0.534,-0.549 -0.797,-1.739 -0.797,-3.568l0,-20.939c2.366,0.065 4.215,0.845 5.546,2.346c1.274,1.427 2.046,3.617 2.325,6.569l1.512,-0.262l-0.288,-10.015Z" style="fill:#e20074;fill-rule:nonzero;"/></g><g><path id="Path1" serif:id="Path" d="M78.142,10.237c-0.493,-2.445 -1.134,-4.249 -1.922,-5.405c-1.257,-1.854 -2.859,-2.781 -4.815,-2.781c-1.191,0 -2.193,0.361 -3.007,1.083c-0.986,0.877 -1.487,2.042 -1.487,3.486c0,1.525 0.534,2.723 1.602,3.608c0.657,0.55 1.923,1.14 3.788,1.78c2.727,0.952 4.568,1.772 5.513,2.461c1.996,1.468 2.99,3.518 2.99,6.151c0,2.494 -0.813,4.585 -2.448,6.266c-1.512,1.559 -3.36,2.346 -5.554,2.346c-1.175,0 -2.268,-0.213 -3.27,-0.64c-0.427,-0.172 -1.134,-0.566 -2.103,-1.181c-0.321,-0.196 -0.625,-0.303 -0.904,-0.303c-0.386,0 -0.731,0.189 -1.019,0.558c-0.131,0.188 -0.312,0.484 -0.542,0.902l-1.265,0l0,-9.9l1.306,0c0.485,2.51 1.142,4.421 1.988,5.725c1.413,2.231 3.287,3.346 5.595,3.346c1.348,0 2.473,-0.393 3.369,-1.181c1.134,-1.008 1.709,-2.403 1.709,-4.166c0,-2.108 -0.879,-3.675 -2.646,-4.683c-0.575,-0.337 -2.12,-0.919 -4.634,-1.764c-1.782,-0.599 -3.179,-1.353 -4.214,-2.264c-1.496,-1.304 -2.243,-3.108 -2.243,-5.405c0,-2.485 0.813,-4.445 2.448,-5.889c1.323,-1.189 2.933,-1.779 4.831,-1.779c1.027,0 2.046,0.196 3.048,0.598c0.411,0.173 1.06,0.525 1.947,1.058c0.28,0.164 0.526,0.238 0.74,0.238c0.427,0 0.846,-0.426 1.265,-1.279l1.126,0l0,9.014l-1.192,0Z" style="fill:#e20074;fill-rule:nonzero;"/><path id="Path2" serif:id="Path" d="M81.913,9.695l8.561,0l0,1.28l-0.739,0c-1.109,0 -1.668,0.295 -1.668,0.877c0,0.255 0.091,0.632 0.28,1.124l4.116,10.712l3.574,-9.933c0.254,-0.697 0.378,-1.23 0.378,-1.599c0,-0.788 -0.6,-1.181 -1.808,-1.181l-0.904,0l0,-1.28l6.737,0l0,1.28l-0.443,0c-0.493,0 -0.896,0.188 -1.2,0.557c-0.23,0.271 -0.452,0.714 -0.682,1.346l-6.803,18.241c-0.64,1.697 -1.347,2.919 -2.127,3.666c-0.806,0.771 -1.792,1.165 -2.966,1.165c-0.986,0 -1.833,-0.288 -2.531,-0.862c-0.83,-0.705 -1.241,-1.591 -1.241,-2.641c0,-0.656 0.189,-1.197 0.559,-1.64c0.403,-0.492 0.945,-0.738 1.643,-0.738c0.764,0 1.348,0.279 1.742,0.845c0.238,0.336 0.362,0.721 0.362,1.164c0,0.599 -0.222,1.107 -0.666,1.518c-0.271,0.254 -0.624,0.41 -1.06,0.483c0.304,0.345 0.731,0.525 1.266,0.525c0.788,0 1.478,-0.311 2.062,-0.943c0.55,-0.59 1.142,-1.796 1.783,-3.625l0.443,-1.28l-5.636,-15.116c-0.427,-1.164 -0.805,-1.878 -1.125,-2.165c-0.362,-0.32 -0.888,-0.484 -1.586,-0.484l-0.337,0l0,-1.296l0.016,0Z" style="fill:#e20074;fill-rule:nonzero;"/><path id="Path3" serif:id="Path" d="M112.764,9.695l0,5.971l-1.24,0c-0.666,-3.461 -2.268,-5.183 -4.79,-5.183c-0.912,0 -1.643,0.27 -2.21,0.82c-0.592,0.558 -0.879,1.247 -0.879,2.059c0,0.935 0.402,1.673 1.224,2.222c0.402,0.271 1.134,0.566 2.185,0.902c2.284,0.739 3.812,1.387 4.577,1.961c1.495,1.132 2.243,2.624 2.243,4.462c0,1.87 -0.65,3.395 -1.948,4.584c-1.101,0.993 -2.497,1.485 -4.214,1.485c-0.986,0 -1.898,-0.172 -2.728,-0.525c-0.337,-0.131 -0.953,-0.468 -1.865,-1.001c-0.197,-0.123 -0.378,-0.18 -0.518,-0.18c-0.254,0 -0.501,0.426 -0.739,1.279l-1.167,0l0,-6.947l1.167,0c0.468,1.698 0.977,2.937 1.52,3.724c0.484,0.714 1.092,1.263 1.824,1.665c0.788,0.443 1.61,0.664 2.464,0.664c1.044,0 1.865,-0.344 2.465,-1.041c0.575,-0.665 0.863,-1.436 0.863,-2.305c0,-1.255 -0.559,-2.223 -1.684,-2.903c-0.6,-0.378 -1.816,-0.862 -3.632,-1.46c-1.199,-0.386 -2.202,-0.886 -2.99,-1.501c-1.208,-0.935 -1.808,-2.264 -1.808,-3.986c0,-1.592 0.559,-2.871 1.684,-3.847c1.019,-0.878 2.301,-1.321 3.854,-1.321c1.347,0 2.645,0.369 3.894,1.099c0.255,0.148 0.452,0.222 0.6,0.222c0.263,0 0.468,-0.304 0.6,-0.919l1.248,0Z" style="fill:#e20074;fill-rule:nonzero;"/><path id="Path4" serif:id="Path" d="M120.849,11.098l0,11.351c0,1.46 0.098,2.535 0.304,3.224c0.304,1.058 0.953,1.583 1.947,1.583c0.912,0 1.561,-0.46 1.947,-1.378c0.378,-0.878 0.559,-1.952 0.559,-3.224l0,-0.557l1.364,0l0,0.762c0,1.895 -0.395,3.396 -1.183,4.503c-0.773,1.083 -1.997,1.624 -3.673,1.624c-1.602,0 -2.793,-0.459 -3.574,-1.378c-0.575,-0.697 -0.92,-1.525 -1.043,-2.501c-0.082,-0.739 -0.123,-1.616 -0.123,-2.641l0,-11.368l-2.966,0l0,-1.157c1.897,-0.467 3.187,-1.214 3.869,-2.247c0.699,-1.05 1.159,-2.756 1.381,-5.102l1.183,0l0,7.111l5.513,0l0,1.403l-5.505,0l0,-0.008Z" style="fill:#e20074;fill-rule:nonzero;"/><path id="Shape" d="M143.27,18.988l-11.231,0c0.016,2.641 0.288,4.601 0.822,5.864c0.747,1.788 2.029,2.682 3.853,2.682c1.413,0 2.596,-0.566 3.549,-1.681c0.518,-0.615 1.044,-1.46 1.561,-2.543l1.224,0.64c-1.725,3.453 -4.05,5.184 -6.983,5.184c-2.153,0 -3.919,-0.73 -5.299,-2.207c-1.709,-1.829 -2.564,-4.47 -2.564,-7.931c0,-3.174 0.855,-5.717 2.564,-7.628c1.347,-1.509 2.974,-2.263 4.872,-2.263c2.818,0 4.937,1.419 6.359,4.24c0.772,1.526 1.191,3.404 1.273,5.643Zm-3.787,-1.435c0,-1.665 -0.181,-3.043 -0.543,-4.126c-0.657,-1.911 -1.684,-2.862 -3.089,-2.862c-1.577,0 -2.695,1.173 -3.352,3.526c-0.271,0.952 -0.411,2.1 -0.419,3.462l7.403,0Z" style="fill:#e20074;fill-rule:nonzero;"/><path id="Path5" serif:id="Path" d="M166.998,28.56l0,-11.532c0,-2.379 -0.164,-3.913 -0.501,-4.61c-0.452,-0.91 -1.159,-1.361 -2.128,-1.361c-1.15,0 -2.079,0.648 -2.785,1.944c-0.387,0.697 -0.641,1.468 -0.764,2.321c-0.091,0.599 -0.14,1.771 -0.14,3.502l0,5.143c0,1.492 0.164,2.436 0.501,2.821c0.279,0.336 0.805,0.5 1.561,0.5l0.6,0l0,1.263l-6.138,0l0,-10.883c0,-1.854 -0.041,-3.068 -0.123,-3.642c-0.279,-1.977 -1.142,-2.961 -2.588,-2.961c-1.166,0 -2.078,0.664 -2.752,1.985c-0.337,0.64 -0.559,1.304 -0.682,2.001c-0.132,0.738 -0.205,1.993 -0.205,3.781l0,5.143c0,1.517 0.156,2.46 0.46,2.821c0.295,0.336 0.838,0.501 1.626,0.501l0.584,0l0,1.263l-8.865,0l0,-1.263l0.657,0c0.748,0 1.265,-0.165 1.561,-0.501c0.345,-0.385 0.526,-1.328 0.526,-2.821l0,-9.728c0,-1.468 -0.173,-2.395 -0.526,-2.78c-0.296,-0.32 -0.813,-0.484 -1.561,-0.484l-0.46,0l0,-1.28l5.759,-0.278l0,3.346c0.271,-0.681 0.641,-1.28 1.126,-1.804c1.027,-1.108 2.259,-1.665 3.689,-1.665c2.21,0 3.804,1.238 4.798,3.723c1.208,-2.485 2.892,-3.723 5.077,-3.723c1.849,0 3.229,0.721 4.149,2.165c0.485,0.746 0.773,1.599 0.88,2.559c0.09,0.763 0.139,1.607 0.139,2.542l0,7.407c0,1.493 0.173,2.436 0.501,2.821c0.28,0.336 0.806,0.501 1.586,0.501l0.46,0l0,1.263l-6.022,0Z" style="fill:#e20074;fill-rule:nonzero;"/><path id="Path6" serif:id="Path" d="M187.02,9.695l0,5.971l-1.24,0c-0.666,-3.461 -2.268,-5.183 -4.799,-5.183c-0.911,0 -1.643,0.27 -2.201,0.82c-0.592,0.558 -0.88,1.247 -0.88,2.059c0,0.935 0.403,1.673 1.225,2.222c0.402,0.271 1.133,0.566 2.185,0.902c2.284,0.739 3.812,1.387 4.576,1.961c1.496,1.132 2.243,2.624 2.243,4.462c0,1.87 -0.649,3.395 -1.947,4.584c-1.093,0.993 -2.497,1.485 -4.215,1.485c-0.986,0 -1.897,-0.172 -2.727,-0.525c-0.337,-0.131 -0.953,-0.468 -1.865,-1.001c-0.198,-0.123 -0.37,-0.18 -0.518,-0.18c-0.255,0 -0.501,0.426 -0.739,1.279l-1.167,0l0,-6.947l1.167,0c0.468,1.698 0.977,2.937 1.528,3.724c0.485,0.714 1.093,1.263 1.824,1.665c0.788,0.443 1.61,0.664 2.465,0.664c1.043,0 1.865,-0.344 2.473,-1.041c0.575,-0.665 0.862,-1.436 0.862,-2.305c0,-1.255 -0.558,-2.223 -1.684,-2.903c-0.6,-0.378 -1.816,-0.862 -3.632,-1.46c-1.207,-0.386 -2.201,-0.886 -2.99,-1.501c-1.208,-0.935 -1.808,-2.264 -1.808,-3.986c0,-1.592 0.559,-2.871 1.685,-3.847c1.018,-0.878 2.3,-1.321 3.853,-1.321c1.347,0 2.645,0.369 3.894,1.099c0.255,0.148 0.452,0.222 0.6,0.222c0.263,0 0.468,-0.304 0.6,-0.919l1.232,0Z" style="fill:#e20074;fill-rule:nonzero;"/><rect id="Path7" serif:id="Path" x="192.492" y="13.238" width="5.759" height="5.75" style="fill:#e20074;fill-rule:nonzero;"/></g></g></svg>